<?xml version="1.0" encoding="UTF-8"?>
<svg version="1.1" xmlns="http://www.w3.org/2000/svg" width="150" height="150">
<path d="M0 0 C4.00114881 -0.1355811 7.99765575 -0.23441636 12 -0.3125 C13.68802734 -0.3753418 13.68802734 -0.3753418 15.41015625 -0.43945312 C22.56651195 -0.54407821 27.56850357 0.10440672 33 5 C38.59006485 11.29532101 40.14958575 17.77932892 41 26 C41.556875 25.0925 42.11375 24.185 42.6875 23.25 C45.59610591 19.16222953 48.21504302 16.59498566 53 15 C58.87404359 14.40263963 62.36438198 15.0459756 67.234375 18.44921875 C70.21308438 21.06547456 71.47078891 23.30440653 73 27 C73 29.31 73 31.62 73 34 C65.41 34 57.82 34 50 34 C52.7098148 37.35123544 52.7098148 37.35123544 56.5 37.3125 C60.1112507 37.27142087 60.1112507 37.27142087 63 35 C65.26171875 34.8046875 65.26171875 34.8046875 67.6875 34.875 C68.49574219 34.89304688 69.30398437 34.91109375 70.13671875 34.9296875 C70.75160156 34.95289063 71.36648437 34.97609375 72 35 C71.70802098 38.40642186 71.05504603 39.93200196 68.875 42.625 C64.56415531 46.18613257 60.61156812 48.38146335 54.9375 47.9375 C50.93978639 47.23247686 48.19047635 45.52270223 45 43 C44.443125 42.566875 43.88625 42.13375 43.3125 41.6875 C41.25713572 39.04488878 40.23078871 36.10627627 39 33 C38.75507812 33.50789063 38.51015625 34.01578125 38.2578125 34.5390625 C34.85736097 40.80058358 30.46220789 44.08190925 24 47 C19.87710321 48.05689515 15.9762571 48.11512863 11.73046875 48.09765625 C10.48418701 48.09515869 9.23790527 48.09266113 7.95385742 48.09008789 C6.38095947 48.08098389 4.80806152 48.07187988 3.1875 48.0625 C-4.3303125 48.0315625 -4.3303125 48.0315625 -12 48 C-12 36.12 -12 24.24 -12 12 C-8.37 12 -4.74 12 -1 12 C-1 19.92 -1 27.84 -1 36 C2.361875 35.87625 5.72375 35.7525 9.1875 35.625 C10.23832764 35.59100098 11.28915527 35.55700195 12.37182617 35.52197266 C13.21205322 35.4863623 14.05228027 35.45075195 14.91796875 35.4140625 C15.77156982 35.3826416 16.6251709 35.3512207 17.50463867 35.31884766 C20.29060897 34.96286711 22.46988279 34.20835709 25 33 C27.42155232 29.73090436 27.79708308 25.99069947 28 22 C26.84496521 17.92340663 26.06612043 15.70686612 22.49609375 13.33984375 C17.98064543 11.60934233 13.92130705 11.43890869 9.125 11.3125 C8.24585937 11.27833984 7.36671875 11.24417969 6.4609375 11.20898438 C4.30772295 11.1270686 2.15388449 11.06184421 0 11 C0 7.37 0 3.74 0 0 Z M51.5625 25.3125 C49.77353066 26.86128753 49.77353066 26.86128753 50 29 C54.29 29 58.58 29 63 29 C62.34 27.68 61.68 26.36 61 25 C57.23363485 23.95378746 55.06751372 23.42518492 51.5625 25.3125 Z " fill="#1F488E" transform="translate(13,50)"/>
<path d="M0 0 C4.32316078 2.2454348 6.95065103 4.83928644 9.0625 9.31640625 C9.0625 12.28640625 9.0625 15.25640625 9.0625 18.31640625 C1.8025 18.31640625 -5.4575 18.31640625 -12.9375 18.31640625 C-12.2775 19.30640625 -11.6175 20.29640625 -10.9375 21.31640625 C-8.50056689 21.68056672 -8.50056689 21.68056672 -5.8125 21.50390625 C-4.90242188 21.47683594 -3.99234375 21.44976562 -3.0546875 21.421875 C-2.35601562 21.38707031 -1.65734375 21.35226563 -0.9375 21.31640625 C-0.9375 20.65640625 -0.9375 19.99640625 -0.9375 19.31640625 C2.3625 19.31640625 5.6625 19.31640625 9.0625 19.31640625 C7.9928999 24.3078734 6.03259949 27.02311039 2.12109375 30.11328125 C-1.461725 32.20722466 -4.83544265 32.62915176 -8.9375 32.31640625 C-14.99745004 30.49842124 -19.16259866 27.52813248 -22.25 21.94140625 C-23.44372139 17.38356092 -23.4230046 13.71580188 -21.875 9.25390625 C-16.85897392 1.64896348 -9.28258429 -3.27510534 0 0 Z M-11.375 9.62890625 C-13.16396934 11.17769378 -13.16396934 11.17769378 -12.9375 13.31640625 C-8.6475 13.31640625 -4.3575 13.31640625 0.0625 13.31640625 C-0.5975 11.99640625 -1.2575 10.67640625 -1.9375 9.31640625 C-5.70386515 8.27019371 -7.86998628 7.74159117 -11.375 9.62890625 Z " fill="#20488E" transform="translate(140.9375,65.68359375)"/>
<path d="M0 0 C3.3 0 6.6 0 10 0 C12.40849813 5.97971949 14.73547081 11.96125548 17 18 C18.98 12.06 20.96 6.12 23 0 C26.3 0 29.6 0 33 0 C32.37652097 4.57044039 31.1920247 8.61172463 29.6015625 12.9375 C29.24812271 13.90224243 29.24812271 13.90224243 28.88754272 14.88647461 C28.39078496 16.23872888 27.89144434 17.59003687 27.38964844 18.94042969 C26.6280664 20.99174069 25.87593079 23.04633177 25.125 25.1015625 C22.99524122 30.88335114 20.84621209 36.52226629 18 42 C14.7 42 11.4 42 8 42 C8.55338542 39.8515625 9.10677083 37.703125 9.66015625 35.5546875 C10.33566252 30.47674385 8.76021226 25.96095253 6.93359375 21.26953125 C6.53076172 20.21958984 6.12792969 19.16964844 5.71289062 18.08789062 C5.08157227 16.46657227 5.08157227 16.46657227 4.4375 14.8125 C3.5983343 12.65409961 2.76348613 10.49401412 1.93359375 8.33203125 C1.56290771 7.38046143 1.19222168 6.4288916 0.81030273 5.44848633 C0 3 0 3 0 0 Z " fill="#20488E" transform="translate(86,65)"/>
<path d="M0 0 C3.63 0 7.26 0 11 0 C11 3.63 11 7.26 11 11 C7.37 11 3.74 11 0 11 C0 7.37 0 3.74 0 0 Z " fill="#EC232A" transform="translate(1,50)"/>
</svg>
